<?xml version="1.0" encoding="utf-8"?>
<!-- Generator: Adobe Illustrator 27.9.0, SVG Export Plug-In . SVG Version: 6.00 Build 0)  -->
<svg version="1.1" id="Camada_1" xmlns="http://www.w3.org/2000/svg" xmlns:xlink="http://www.w3.org/1999/xlink" x="0px" y="0px"
	 viewBox="0 0 512 74.04" style="enable-background:new 0 0 512 74.04;" xml:space="preserve">
<style type="text/css">
	.st0{fill:#FFFFFF;}
	.st1{fill:#4B947B;}
</style>
<g>
	<path class="st0" d="M193.99,6.05c0,3.33-2.69,6.02-6.02,6.02c-3.33,0-6.02-2.69-6.02-6.02s2.69-6.02,6.02-6.02
		C191.3,0.02,193.99,2.72,193.99,6.05L193.99,6.05z"/>
	<path class="st0" d="M269.54,5.99c0,3.31-2.68,5.99-5.99,5.99s-5.99-2.68-5.99-5.99c0-3.31,2.68-5.99,5.99-5.99
		S269.54,2.68,269.54,5.99L269.54,5.99z"/>
	<path class="st0" d="M50.74,35.87c2.38,1.88,3.77,3.04,4.15,3.48c3.62,4.21,5.29,8.87,5.01,14c-0.54,9.53-7.16,16.08-16,19.06
		c-2.13,0.72-5.85,1.04-11.15,0.94c-5.43-0.1-13.54-0.1-24.34,0c-3.22,0.03-6-0.71-5.99-4.24C2.46,54.89,2.48,33.63,2.48,5.34
		c0-2.8,1.5-4.22,4.49-4.25C15.8,0.97,24.36,0.9,32.62,0.86c5.36-0.02,9.02,0.33,10.97,1.08c14.27,5.45,18.81,22.37,7.12,33.32
		C50.53,35.42,50.54,35.72,50.74,35.87 M13.1,62.91c6.66,0.04,14.75,0.05,24.28,0.03c4.37-0.01,7.57-1.39,9.6-4.14
		c2.64-3.59,3.14-8.49,0.67-12.27c-2.35-3.57-5.69-5.32-10.03-5.23c-7.24,0.13-11.55,0.19-12.92,0.17
		c-0.25-0.01-0.49-0.05-0.71-0.13c-2.83-1.06-3.07-4.12-2.64-6.89c0.36-2.27,1.88-3.29,4.12-3.3c3.57-0.02,6.92-0.02,10.05,0.02
		c2.79,0.04,4.89-0.32,6.29-1.06c5.05-2.68,7.15-9.06,3.91-13.98c-2.92-4.42-6.11-5.01-12.1-4.99c-11.85,0.04-18.65,0.06-20.4,0.03
		c-0.3,0-0.54,0.24-0.54,0.54v50.78C12.69,62.72,12.87,62.9,13.1,62.91L13.1,62.91z"/>
	<path class="st1" d="M349.55,62.81c5.51-0.29,14.94,0.87,20.79-0.69c16.66-4.46,23.9-23.31,15.09-37.86
		c-3.8-6.26-9.07-10.32-15.85-12.2c-2.27-0.63-6.12-0.91-11.56-0.87c-7.56,0.06-11.43,0.1-11.59,0.1c-2.5,0.06-4.1-0.07-4.82-0.38
		c-2.79-1.22-4.23-5.17-2.32-7.68c1.28-1.68,2.65-2.18,4.91-2.19c1.52,0,6.45-0.02,14.78-0.08c5.99-0.04,10.38,0.36,13.16,1.2
		c14.95,4.52,25,16.32,27.03,31.91c0.61,4.66,0.21,9.29-1.2,13.91c-4.74,15.51-18.85,25.54-34.96,25.28
		c-7-0.11-13.05-0.1-18.13,0.02c-3.78,0.1-6.13-0.57-6.12-4.78c0.02-11.67-0.1-26.25,0.13-41.25c0.03-2.19,0.36-3.69,0.97-4.49
		c2.6-3.38,7.16-2.99,9.08,0.87c0.07,0.14,0.1,0.29,0.1,0.45v38.24C349.03,62.61,349.27,62.83,349.55,62.81L349.55,62.81z"/>
	<path class="st0" d="M76.47,51.22c-0.13,0.01-0.23,0.13-0.19,0.25c3.28,11.52,14.78,15.59,25.31,10.37
		c0.28-0.13,1.26-0.88,2.96-2.22c2.57-2.03,4.83-2.98,7.73-1.2c2.22,1.37,2.64,4.44,1.14,6.31c-1.28,1.61-2.9,3.03-4.84,4.26
		c-9.37,5.92-18.76,6.6-28.17,2.04c-14.67-7.11-19.12-26.99-9.56-40.01c13.37-18.22,41.31-12.17,47.15,9.11
		c1.09,3.95,0.51,7.63-2.72,10c-1.05,0.78-2.39,1.16-4.01,1.13C96.22,51.08,84.62,51.06,76.47,51.22 M92.29,41.8
		c5.24-0.02,10.25-0.07,15.04-0.17c0.31-0.01,0.52-0.32,0.42-0.6c-2.42-6.73-8.39-10.9-15.48-10.89
		c-7.1,0.02-13.06,4.23-15.43,10.97c-0.11,0.29,0.1,0.59,0.42,0.6C82.04,41.79,87.06,41.82,92.29,41.8L92.29,41.8z"/>
	<path class="st0" d="M329.27,53.78c-3.69,14.36-18.37,23-32.78,19.3c-14.42-3.7-23.12-18.35-19.43-32.7
		c3.69-14.36,18.37-23,32.78-19.3C324.25,24.78,332.95,39.43,329.27,53.78 M320.04,47.16c0-9.34-7.57-16.91-16.91-16.91
		c-9.34,0-16.91,7.57-16.91,16.91s7.57,16.91,16.91,16.91C312.48,64.07,320.04,56.5,320.04,47.16L320.04,47.16z"/>
	<path class="st1" d="M415.14,51.37c-0.17,0-0.29,0.18-0.24,0.35c2.75,7.72,8.19,11.89,16.34,12.53c2.96,0.23,5.73-0.24,8.3-1.42
		c3.75-1.72,7.23-7.15,11.72-3.65c6.81,5.32-5.21,11.22-9.38,12.89c-10.29,4.13-21.3,1.6-29.32-6.01
		c-15.62-14.81-7.81-42.05,14.14-45.53c14.94-2.37,28.15,7.49,31,22.37c0.86,4.44-1.74,8.41-6.52,8.36
		C440.63,51.15,428.61,51.18,415.14,51.37 M431.28,41.7c2.52-0.02,7.77-0.05,15.77-0.09c0.19-0.01,0.32-0.2,0.25-0.37
		c-2.63-6.61-8.92-11.28-16.08-11.24c-7.15,0.03-13.41,4.78-15.96,11.41c-0.07,0.18,0.06,0.37,0.25,0.37
		C423.5,41.74,428.76,41.71,431.28,41.7L431.28,41.7z"/>
	<path class="st0" d="M135.95,25.69c0.21-0.11,0.58-0.42,1.09-0.93c1.39-1.37,3.56-2.47,6.5-3.31c9.44-2.69,17.53-0.48,24.29,6.64
		c6.2,6.53,6.03,13.49,6,23.79c-0.02,6.28-0.03,12.03-0.04,17.22c0,3.31-3.82,5.21-6.6,4.33c-2.46-0.78-3.68-2.48-3.65-5.12
		c0.12-11.6,0.17-19.32,0.13-23.18c-0.11-12.07-11.04-18.33-21.42-12.7c-2.56,1.39-4.48,3.72-5.75,7c-0.71,1.79-1.01,4.83-0.9,9.11
		c0.09,3.99,0.11,11,0.06,21.02c0,0.21-0.05,0.43-0.13,0.62c-1.31,2.82-3.46,3.91-6.45,3.26c-2.84-0.62-3.73-2.71-3.75-5.56
		c-0.07-12.61-0.06-26.83,0.04-42.64c0.01-0.2,0.04-0.4,0.11-0.59c1.92-5.28,9.71-5.64,10.04,0.78
		C135.52,25.66,135.76,25.79,135.95,25.69L135.95,25.69z"/>
	<path class="st0" d="M210.97,47.25c0.06,9.74,7.23,16.16,16.56,16.67c4.2,0.24,8.91-1.2,12.15-4.22c1.28-1.18,2.08-1.9,2.43-2.16
		c0.2-0.14,0.4-0.25,0.63-0.34c1.94-0.71,3.69-0.32,5.26,1.16c6.92,6.53-8.9,13.49-13.17,14.63c-4.68,1.27-9.28,1.31-13.77,0.12
		c-11.99-3.18-20.11-13.18-20.2-25.79c-0.09-12.61,7.9-22.72,19.84-26.07c4.48-1.25,9.07-1.27,13.77-0.07
		c4.29,1.09,20.2,7.84,13.37,14.45c-1.54,1.5-3.3,1.91-5.25,1.24c-0.22-0.09-0.44-0.2-0.63-0.33c-0.36-0.25-1.17-0.97-2.46-2.13
		c-3.27-2.97-8-4.34-12.2-4.05C217.97,31,210.89,37.52,210.97,47.25L210.97,47.25z"/>
	<path class="st0" d="M193.39,68.8c0,2.71-2.19,4.91-4.9,4.92l-0.52,0c-2.72,0.01-4.92-2.19-4.92-4.9l-0.08-43.18
		c0-2.71,2.19-4.91,4.9-4.92l0.52,0c2.72-0.01,4.92,2.19,4.92,4.9L193.39,68.8L193.39,68.8z"/>
	<path class="st0" d="M268.68,68.73c0,2.72-2.22,4.94-4.94,4.93l-0.38,0c-2.73-0.01-4.93-2.22-4.93-4.94l0.08-43.04
		c0-2.72,2.22-4.94,4.94-4.93l0.38,0c2.73,0.01,4.93,2.22,4.93,4.94L268.68,68.73L268.68,68.73z"/>
	<path class="st1" d="M485.1,58.59c0.06,0.14,0.25,0.14,0.31,0.01c4.61-11.33,9.21-22.35,13.79-33.06c0.72-1.7,1.39-2.84,2.01-3.43
		c2.65-2.55,6.81-1.36,8.18,1.88c0.32,0.78,0.23,1.78-0.29,3.01c-1.66,3.94-7.57,17.9-17.72,41.87c-0.82,1.93-1.54,3.14-2.18,3.64
		c-2.26,1.77-5.61,2.21-7.91-0.06c-0.71-0.69-1.43-1.93-2.18-3.7c-6.81-16.17-12.68-29.63-17.61-40.4c-0.8-1.75-1.05-3.16-0.74-4.24
		c0.42-1.51,1.42-2.51,3-3.03c3.1-1,5.32-0.01,6.66,2.98C475.63,35.66,480.53,47.17,485.1,58.59L485.1,58.59z"/>
</g>
</svg>
